<?xml version="1.0" encoding="UTF-8" standalone="no"?>
<!DOCTYPE svg PUBLIC "-//W3C//DTD SVG 1.1//EN"
 "http://www.w3.org/Graphics/SVG/1.1/DTD/svg11.dtd">
<!-- Generated by graphviz version 2.40.1 (20161225.0304)
 -->
<!-- Title: G Pages: 1 -->
<svg width="892pt" height="569pt"
 viewBox="0.00 0.00 892.00 569.00" xmlns="http://www.w3.org/2000/svg" xmlns:xlink="http://www.w3.org/1999/xlink">
<g id="graph0" class="graph" transform="scale(1 1) rotate(0) translate(4 565)">
<title>G</title>
<polygon fill="#ffffff" stroke="transparent" points="-4,4 -4,-565 888,-565 888,4 -4,4"/>
<g id="clust1" class="cluster">
<title>cluster_root</title>
<g id="a_clust1"><a xlink:title="eventq_index=0&#10;full_system=false&#10;sim_quantum=0&#10;time_sync_enable=false&#10;time_sync_period=100000000000&#10;time_sync_spin_threshold=100000000">
<path fill="#bab6ae" stroke="#000000" d="M20,-8C20,-8 864,-8 864,-8 870,-8 876,-14 876,-20 876,-20 876,-541 876,-541 876,-547 870,-553 864,-553 864,-553 20,-553 20,-553 14,-553 8,-547 8,-541 8,-541 8,-20 8,-20 8,-14 14,-8 20,-8"/>
<text text-anchor="middle" x="442" y="-537.8" font-family="Arial" font-size="14.00" fill="#000000">root </text>
<text text-anchor="middle" x="442" y="-522.8" font-family="Arial" font-size="14.00" fill="#000000">: Root</text>
</a>
</g>
</g>
<g id="clust2" class="cluster">
<title>cluster_system</title>
<g id="a_clust2"><a xlink:title="boot_osflags=a&#10;cache_line_size=64&#10;eventq_index=0&#10;exit_on_work_items=false&#10;init_param=0&#10;kernel=&#10;kernel_addr_check=true&#10;kernel_extras=&#10;&#10;oad_addr_mask=18446744073709551615&#10;&#10;oad_offset=0&#10;mem_mode=atomic&#10;mem_ranges=0:2147483647&#10;memories=system.mem_ctrls0 system.mem_ctrls1&#10;mmap_using_noreserve=false&#10;multi_thread=false&#10;&#10;um_work_ids=16&#10;&#13;eadfile=&#10;&#13;edirect_paths=&#10;symbolfile=&#10;thermal_components=&#10;thermal_model=Null&#10;work_begin_ckpt_count=0&#10;work_begin_cpu_id_exit=&#45;1&#10;work_begin_exit_count=0&#10;work_cpus_ckpt_count=0&#10;work_end_ckpt_count=0&#10;work_end_exit_count=0&#10;work_item_id=&#45;1">
<path fill="#e4e7eb" stroke="#000000" d="M28,-16C28,-16 856,-16 856,-16 862,-16 868,-22 868,-28 868,-28 868,-495 868,-495 868,-501 862,-507 856,-507 856,-507 28,-507 28,-507 22,-507 16,-501 16,-495 16,-495 16,-28 16,-28 16,-22 22,-16 28,-16"/>
<text text-anchor="middle" x="442" y="-491.8" font-family="Arial" font-size="14.00" fill="#000000">system </text>
<text text-anchor="middle" x="442" y="-476.8" font-family="Arial" font-size="14.00" fill="#000000">: SimpleSeSystem</text>
</a>
</g>
</g>
<g id="clust3" class="cluster">
<title>cluster_system_membus</title>
<g id="a_clust3"><a xlink:title="clk_domain=system.clk_domain&#10;default_p_state=UNDEFINED&#10;eventq_index=0&#10;forward_latency=4&#10;frontend_latency=3&#10;max_outstanding_snoops=512&#10;max_routing_table_size=512&#10;p_state_clk_gate_bins=20&#10;p_state_clk_gate_max=1000000000000&#10;p_state_clk_gate_min=1000&#10;point_of_coherency=true&#10;point_of_unification=true&#10;power_model=&#10;&#13;esponse_latency=2&#10;snoop_filter=system.membus.snoop_filter&#10;snoop_response_latency=4&#10;system=system&#10;use_default_range=false&#10;width=16">
<path fill="#6f798c" stroke="#000000" d="M332,-285C332,-285 458,-285 458,-285 464,-285 470,-291 470,-297 470,-297 470,-364 470,-364 470,-370 464,-376 458,-376 458,-376 332,-376 332,-376 326,-376 320,-370 320,-364 320,-364 320,-297 320,-297 320,-291 326,-285 332,-285"/>
<text text-anchor="middle" x="395" y="-360.8" font-family="Arial" font-size="14.00" fill="#000000">membus </text>
<text text-anchor="middle" x="395" y="-345.8" font-family="Arial" font-size="14.00" fill="#000000">: SystemXBar</text>
</a>
</g>
</g>
<g id="clust7" class="cluster">
<title>cluster_system_cpu_cluster</title>
<g id="a_clust7"><a xlink:title="eventq_index=0&#10;thermal_domain=Null">
<path fill="#bab6ae" stroke="#000000" d="M326,-24C326,-24 848,-24 848,-24 854,-24 860,-30 860,-36 860,-36 860,-265 860,-265 860,-271 854,-277 848,-277 848,-277 326,-277 326,-277 320,-277 314,-271 314,-265 314,-265 314,-36 314,-36 314,-30 320,-24 326,-24"/>
<text text-anchor="middle" x="587" y="-261.8" font-family="Arial" font-size="14.00" fill="#000000">cpu_cluster </text>
<text text-anchor="middle" x="587" y="-246.8" font-family="Arial" font-size="14.00" fill="#000000">: CpuCluster</text>
</a>
</g>
</g>
<g id="clust10" class="cluster">
<title>cluster_system_cpu_cluster_cpus</title>
<g id="a_clust10"><a xlink:title="branchPred=Null&#10;checker=Null&#10;clk_domain=system.cpu_cluster.clk_domain&#10;cpu_id=0&#10;default_p_state=UNDEFINED&#10;do_checkpoint_insts=true&#10;do_quiesce=true&#10;do_statistics_insts=true&#10;dtb=system.cpu_cluster.cpus.dtb&#10;eventq_index=0&#10;function_trace=false&#10;function_trace_start=0&#10;interrupts=system.cpu_cluster.cpus.interrupts&#10;isa=system.cpu_cluster.cpus.isa&#10;itb=system.cpu_cluster.cpus.itb&#10;max_insts_all_threads=0&#10;max_insts_any_thread=0&#10;&#10;umThreads=1&#10;p_state_clk_gate_bins=20&#10;p_state_clk_gate_max=1000000000000&#10;p_state_clk_gate_min=1000&#10;power_gating_on_idle=false&#10;power_model=&#10;profile=0&#10;progress_interval=0&#10;pwr_gating_latency=300&#10;simpoint_start_insts=&#10;simulate_data_stalls=false&#10;simulate_inst_stalls=false&#10;socket_id=0&#10;switched_out=false&#10;syscallRetryLatency=10000&#10;system=system&#10;tracer=system.cpu_cluster.cpus.tracer&#10;wait_for_remote_gdb=false&#10;width=1&#10;workload=system.cpu_cluster.cpus.workload">
<path fill="#bbc6d9" stroke="#000000" d="M334,-32C334,-32 840,-32 840,-32 846,-32 852,-38 852,-44 852,-44 852,-219 852,-219 852,-225 846,-231 840,-231 840,-231 334,-231 334,-231 328,-231 322,-225 322,-219 322,-219 322,-44 322,-44 322,-38 328,-32 334,-32"/>
<text text-anchor="middle" x="587" y="-215.8" font-family="Arial" font-size="14.00" fill="#000000">cpus </text>
<text text-anchor="middle" x="587" y="-200.8" font-family="Arial" font-size="14.00" fill="#000000">: AtomicSimpleCPU</text>
</a>
</g>
</g>
<g id="clust12" class="cluster">
<title>cluster_system_cpu_cluster_cpus_dtb</title>
<g id="a_clust12"><a xlink:title="eventq_index=0&#10;is_stage2=false&#10;size=64&#10;sys=system&#10;walker=system.cpu_cluster.cpus.dtb.walker">
<path fill="#bab6ae" stroke="#000000" d="M711,-40C711,-40 832,-40 832,-40 838,-40 844,-46 844,-52 844,-52 844,-173 844,-173 844,-179 838,-185 832,-185 832,-185 711,-185 711,-185 705,-185 699,-179 699,-173 699,-173 699,-52 699,-52 699,-46 705,-40 711,-40"/>
<text text-anchor="middle" x="771.5" y="-169.8" font-family="Arial" font-size="14.00" fill="#000000">dtb </text>
<text text-anchor="middle" x="771.5" y="-154.8" font-family="Arial" font-size="14.00" fill="#000000">: ArmDTB</text>
</a>
</g>
</g>
<g id="clust13" class="cluster">
<title>cluster_system_cpu_cluster_cpus_dtb_walker</title>
<g id="a_clust13"><a xlink:title="clk_domain=system.cpu_cluster.clk_domain&#10;default_p_state=UNDEFINED&#10;eventq_index=0&#10;is_stage2=false&#10;&#10;um_squash_per_cycle=2&#10;p_state_clk_gate_bins=20&#10;p_state_clk_gate_max=1000000000000&#10;p_state_clk_gate_min=1000&#10;power_model=&#10;sys=system">
<path fill="#9f9c95" stroke="#000000" d="M719,-48C719,-48 824,-48 824,-48 830,-48 836,-54 836,-60 836,-60 836,-127 836,-127 836,-133 830,-139 824,-139 824,-139 719,-139 719,-139 713,-139 707,-133 707,-127 707,-127 707,-60 707,-60 707,-54 713,-48 719,-48"/>
<text text-anchor="middle" x="771.5" y="-123.8" font-family="Arial" font-size="14.00" fill="#000000">walker </text>
<text text-anchor="middle" x="771.5" y="-108.8" font-family="Arial" font-size="14.00" fill="#000000">: ArmTableWalker</text>
</a>
</g>
</g>
<g id="clust18" class="cluster">
<title>cluster_system_cpu_cluster_cpus_itb</title>
<g id="a_clust18"><a xlink:title="eventq_index=0&#10;is_stage2=false&#10;size=64&#10;sys=system&#10;walker=system.cpu_cluster.cpus.itb.walker">
<path fill="#bab6ae" stroke="#000000" d="M558,-40C558,-40 679,-40 679,-40 685,-40 691,-46 691,-52 691,-52 691,-173 691,-173 691,-179 685,-185 679,-185 679,-185 558,-185 558,-185 552,-185 546,-179 546,-173 546,-173 546,-52 546,-52 546,-46 552,-40 558,-40"/>
<text text-anchor="middle" x="618.5" y="-169.8" font-family="Arial" font-size="14.00" fill="#000000">itb </text>
<text text-anchor="middle" x="618.5" y="-154.8" font-family="Arial" font-size="14.00" fill="#000000">: ArmITB</text>
</a>
</g>
</g>
<g id="clust19" class="cluster">
<title>cluster_system_cpu_cluster_cpus_itb_walker</title>
<g id="a_clust19"><a xlink:title="clk_domain=system.cpu_cluster.clk_domain&#10;default_p_state=UNDEFINED&#10;eventq_index=0&#10;is_stage2=false&#10;&#10;um_squash_per_cycle=2&#10;p_state_clk_gate_bins=20&#10;p_state_clk_gate_max=1000000000000&#10;p_state_clk_gate_min=1000&#10;power_model=&#10;sys=system">
<path fill="#9f9c95" stroke="#000000" d="M566,-48C566,-48 671,-48 671,-48 677,-48 683,-54 683,-60 683,-60 683,-127 683,-127 683,-133 677,-139 671,-139 671,-139 566,-139 566,-139 560,-139 554,-133 554,-127 554,-127 554,-60 554,-60 554,-54 560,-48 566,-48"/>
<text text-anchor="middle" x="618.5" y="-123.8" font-family="Arial" font-size="14.00" fill="#000000">walker </text>
<text text-anchor="middle" x="618.5" y="-108.8" font-family="Arial" font-size="14.00" fill="#000000">: ArmTableWalker</text>
</a>
</g>
</g>
<g id="clust25" class="cluster">
<title>cluster_system_mem_ctrls0</title>
<g id="a_clust25"><a xlink:title="IDD0=0.055&#10;IDD02=0.0&#10;IDD2N=0.032&#10;IDD2N2=0.0&#10;IDD2P0=0.0&#10;IDD2P02=0.0&#10;IDD2P1=0.032&#10;IDD2P12=0.0&#10;IDD3N=0.038&#10;IDD3N2=0.0&#10;IDD3P0=0.0&#10;IDD3P02=0.0&#10;IDD3P1=0.038&#10;IDD3P12=0.0&#10;IDD4R=0.157&#10;IDD4R2=0.0&#10;IDD4W=0.125&#10;IDD4W2=0.0&#10;IDD5=0.235&#10;IDD52=0.0&#10;IDD6=0.02&#10;IDD62=0.0&#10;VDD=1.5&#10;VDD2=0.0&#10;activation_limit=4&#10;addr_mapping=RoRaBaCoCh&#10;bank_groups_per_rank=0&#10;banks_per_rank=8&#10;burst_length=8&#10;clk_domain=system.clk_domain&#10;conf_table_reported=true&#10;default_p_state=UNDEFINED&#10;device_bus_width=8&#10;device_rowbuffer_size=1024&#10;device_size=536870912&#10;devices_per_rank=8&#10;dll=true&#10;enable_dram_powerdown=false&#10;eventq_index=0&#10;in_addr_map=true&#10;kvm_map=true&#10;max_accesses_per_row=16&#10;mem_sched_policy=frfcfs&#10;min_writes_per_switch=16&#10;&#10;ull=false&#10;p_state_clk_gate_bins=20&#10;p_state_clk_gate_max=1000000000000&#10;p_state_clk_gate_min=1000&#10;page_policy=open_adaptive&#10;power_model=&#10;qos_masters= &#160;&#160;&#160;&#160;&#160;&#160;&#160;&#160;&#160;&#160;&#160;&#160;&#160;&#160;&#10;qos_policy=Null&#10;qos_priorities=1&#10;qos_priority_escalation=false&#10;qos_q_policy=fifo&#10;qos_syncro_scheduler=false&#10;qos_turnaround_policy=Null&#10;&#13;ange=0:2147483647:0:1048704&#10;&#13;anks_per_channel=2&#10;&#13;ead_buffer_size=32&#10;static_backend_latency=10000&#10;static_frontend_latency=10000&#10;tBURST=5000&#10;tCCD_L=0&#10;tCCD_L_WR=0&#10;tCK=1250&#10;tCL=13750&#10;tCS=2500&#10;tRAS=35000&#10;tRCD=13750&#10;tREFI=7800000&#10;tRFC=260000&#10;tRP=13750&#10;tRRD=6000&#10;tRRD_L=0&#10;tRTP=7500&#10;tRTW=2500&#10;tWR=15000&#10;tWTR=7500&#10;tXAW=30000&#10;tXP=6000&#10;tXPDLL=0&#10;tXS=270000&#10;tXSDLL=0&#10;write_buffer_size=64&#10;write_high_thresh_perc=85&#10;write_low_thresh_perc=50">
<path fill="#5e5958" stroke="#000000" d="M36,-48C36,-48 149,-48 149,-48 155,-48 161,-54 161,-60 161,-60 161,-127 161,-127 161,-133 155,-139 149,-139 149,-139 36,-139 36,-139 30,-139 24,-133 24,-127 24,-127 24,-60 24,-60 24,-54 30,-48 36,-48"/>
<text text-anchor="middle" x="92.5" y="-123.8" font-family="Arial" font-size="14.00" fill="#000000">mem_ctrls0 </text>
<text text-anchor="middle" x="92.5" y="-108.8" font-family="Arial" font-size="14.00" fill="#000000">: DDR3_1600_8x8</text>
</a>
</g>
</g>
<g id="clust26" class="cluster">
<title>cluster_system_mem_ctrls1</title>
<g id="a_clust26"><a xlink:title="IDD0=0.055&#10;IDD02=0.0&#10;IDD2N=0.032&#10;IDD2N2=0.0&#10;IDD2P0=0.0&#10;IDD2P02=0.0&#10;IDD2P1=0.032&#10;IDD2P12=0.0&#10;IDD3N=0.038&#10;IDD3N2=0.0&#10;IDD3P0=0.0&#10;IDD3P02=0.0&#10;IDD3P1=0.038&#10;IDD3P12=0.0&#10;IDD4R=0.157&#10;IDD4R2=0.0&#10;IDD4W=0.125&#10;IDD4W2=0.0&#10;IDD5=0.235&#10;IDD52=0.0&#10;IDD6=0.02&#10;IDD62=0.0&#10;VDD=1.5&#10;VDD2=0.0&#10;activation_limit=4&#10;addr_mapping=RoRaBaCoCh&#10;bank_groups_per_rank=0&#10;banks_per_rank=8&#10;burst_length=8&#10;clk_domain=system.clk_domain&#10;conf_table_reported=true&#10;default_p_state=UNDEFINED&#10;device_bus_width=8&#10;device_rowbuffer_size=1024&#10;device_size=536870912&#10;devices_per_rank=8&#10;dll=true&#10;enable_dram_powerdown=false&#10;eventq_index=0&#10;in_addr_map=true&#10;kvm_map=true&#10;max_accesses_per_row=16&#10;mem_sched_policy=frfcfs&#10;min_writes_per_switch=16&#10;&#10;ull=false&#10;p_state_clk_gate_bins=20&#10;p_state_clk_gate_max=1000000000000&#10;p_state_clk_gate_min=1000&#10;page_policy=open_adaptive&#10;power_model=&#10;qos_masters= &#160;&#160;&#160;&#160;&#160;&#160;&#160;&#160;&#160;&#160;&#160;&#160;&#160;&#160;&#10;qos_policy=Null&#10;qos_priorities=1&#10;qos_priority_escalation=false&#10;qos_q_policy=fifo&#10;qos_syncro_scheduler=false&#10;qos_turnaround_policy=Null&#10;&#13;ange=0:2147483647:1:1048704&#10;&#13;anks_per_channel=2&#10;&#13;ead_buffer_size=32&#10;static_backend_latency=10000&#10;static_frontend_latency=10000&#10;tBURST=5000&#10;tCCD_L=0&#10;tCCD_L_WR=0&#10;tCK=1250&#10;tCL=13750&#10;tCS=2500&#10;tRAS=35000&#10;tRCD=13750&#10;tREFI=7800000&#10;tRFC=260000&#10;tRP=13750&#10;tRRD=6000&#10;tRRD_L=0&#10;tRTP=7500&#10;tRTW=2500&#10;tWR=15000&#10;tWTR=7500&#10;tXAW=30000&#10;tXP=6000&#10;tXPDLL=0&#10;tXS=270000&#10;tXSDLL=0&#10;write_buffer_size=64&#10;write_high_thresh_perc=85&#10;write_low_thresh_perc=50">
<path fill="#5e5958" stroke="#000000" d="M181,-48C181,-48 294,-48 294,-48 300,-48 306,-54 306,-60 306,-60 306,-127 306,-127 306,-133 300,-139 294,-139 294,-139 181,-139 181,-139 175,-139 169,-133 169,-127 169,-127 169,-60 169,-60 169,-54 175,-48 181,-48"/>
<text text-anchor="middle" x="237.5" y="-123.8" font-family="Arial" font-size="14.00" fill="#000000">mem_ctrls1 </text>
<text text-anchor="middle" x="237.5" y="-108.8" font-family="Arial" font-size="14.00" fill="#000000">: DDR3_1600_8x8</text>
</a>
</g>
</g>
<!-- system_system_port -->
<g id="node1" class="node">
<title>system_system_port</title>
<path fill="#b6b8bc" stroke="#000000" d="M399,-424.5C399,-424.5 471,-424.5 471,-424.5 477,-424.5 483,-430.5 483,-436.5 483,-436.5 483,-448.5 483,-448.5 483,-454.5 477,-460.5 471,-460.5 471,-460.5 399,-460.5 399,-460.5 393,-460.5 387,-454.5 387,-448.5 387,-448.5 387,-436.5 387,-436.5 387,-430.5 393,-424.5 399,-424.5"/>
<text text-anchor="middle" x="435" y="-438.8" font-family="Arial" font-size="14.00" fill="#000000">system_port</text>
</g>
<!-- system_membus_slave -->
<g id="node3" class="node">
<title>system_membus_slave</title>
<path fill="#586070" stroke="#000000" d="M420,-293.5C420,-293.5 450,-293.5 450,-293.5 456,-293.5 462,-299.5 462,-305.5 462,-305.5 462,-317.5 462,-317.5 462,-323.5 456,-329.5 450,-329.5 450,-329.5 420,-329.5 420,-329.5 414,-329.5 408,-323.5 408,-317.5 408,-317.5 408,-305.5 408,-305.5 408,-299.5 414,-293.5 420,-293.5"/>
<text text-anchor="middle" x="435" y="-307.8" font-family="Arial" font-size="14.00" fill="#000000">slave</text>
</g>
<!-- system_system_port&#45;&gt;system_membus_slave -->
<g id="edge1" class="edge">
<title>system_system_port&#45;&gt;system_membus_slave</title>
<path fill="none" stroke="#000000" d="M435,-424.285C435,-402.3856 435,-365.3861 435,-339.7663"/>
<polygon fill="#000000" stroke="#000000" points="438.5001,-339.5603 435,-329.5603 431.5001,-339.5603 438.5001,-339.5603"/>
</g>
<!-- system_membus_master -->
<g id="node2" class="node">
<title>system_membus_master</title>
<path fill="#586070" stroke="#000000" d="M340.5,-293.5C340.5,-293.5 377.5,-293.5 377.5,-293.5 383.5,-293.5 389.5,-299.5 389.5,-305.5 389.5,-305.5 389.5,-317.5 389.5,-317.5 389.5,-323.5 383.5,-329.5 377.5,-329.5 377.5,-329.5 340.5,-329.5 340.5,-329.5 334.5,-329.5 328.5,-323.5 328.5,-317.5 328.5,-317.5 328.5,-305.5 328.5,-305.5 328.5,-299.5 334.5,-293.5 340.5,-293.5"/>
<text text-anchor="middle" x="359" y="-307.8" font-family="Arial" font-size="14.00" fill="#000000">master</text>
</g>
<!-- system_mem_ctrls0_port -->
<g id="node8" class="node">
<title>system_mem_ctrls0_port</title>
<path fill="#4b4746" stroke="#000000" d="M111,-56.5C111,-56.5 141,-56.5 141,-56.5 147,-56.5 153,-62.5 153,-68.5 153,-68.5 153,-80.5 153,-80.5 153,-86.5 147,-92.5 141,-92.5 141,-92.5 111,-92.5 111,-92.5 105,-92.5 99,-86.5 99,-80.5 99,-80.5 99,-68.5 99,-68.5 99,-62.5 105,-56.5 111,-56.5"/>
<text text-anchor="middle" x="126" y="-70.8" font-family="Arial" font-size="14.00" fill="#000000">port</text>
</g>
<!-- system_membus_master&#45;&gt;system_mem_ctrls0_port -->
<g id="edge2" class="edge">
<title>system_membus_master&#45;&gt;system_mem_ctrls0_port</title>
<path fill="none" stroke="#000000" d="M328.4993,-310.182C279.8013,-307.4268 187.6561,-299.3351 165,-277 118.1277,-230.7917 118.4635,-146.5187 122.3769,-102.6822"/>
<polygon fill="#000000" stroke="#000000" points="125.8614,-103.011 123.3934,-92.7077 118.8975,-102.3013 125.8614,-103.011"/>
</g>
<!-- system_mem_ctrls1_port -->
<g id="node9" class="node">
<title>system_mem_ctrls1_port</title>
<path fill="#4b4746" stroke="#000000" d="M256,-56.5C256,-56.5 286,-56.5 286,-56.5 292,-56.5 298,-62.5 298,-68.5 298,-68.5 298,-80.5 298,-80.5 298,-86.5 292,-92.5 286,-92.5 286,-92.5 256,-92.5 256,-92.5 250,-92.5 244,-86.5 244,-80.5 244,-80.5 244,-68.5 244,-68.5 244,-62.5 250,-56.5 256,-56.5"/>
<text text-anchor="middle" x="271" y="-70.8" font-family="Arial" font-size="14.00" fill="#000000">port</text>
</g>
<!-- system_membus_master&#45;&gt;system_mem_ctrls1_port -->
<g id="edge3" class="edge">
<title>system_membus_master&#45;&gt;system_mem_ctrls1_port</title>
<path fill="none" stroke="#000000" d="M332.173,-293.258C326.8075,-288.5185 321.6935,-283.0287 318,-277 284.0775,-221.63 274.6219,-144.0642 271.9978,-102.8523"/>
<polygon fill="#000000" stroke="#000000" points="275.4845,-102.5113 271.4453,-92.7167 268.4948,-102.8923 275.4845,-102.5113"/>
</g>
<!-- system_cpu_cluster_cpus_icache_port -->
<g id="node4" class="node">
<title>system_cpu_cluster_cpus_icache_port</title>
<path fill="#959ead" stroke="#000000" d="M458,-56.5C458,-56.5 526,-56.5 526,-56.5 532,-56.5 538,-62.5 538,-68.5 538,-68.5 538,-80.5 538,-80.5 538,-86.5 532,-92.5 526,-92.5 526,-92.5 458,-92.5 458,-92.5 452,-92.5 446,-86.5 446,-80.5 446,-80.5 446,-68.5 446,-68.5 446,-62.5 452,-56.5 458,-56.5"/>
<text text-anchor="middle" x="492" y="-70.8" font-family="Arial" font-size="14.00" fill="#000000">icache_port</text>
</g>
<!-- system_membus_slave&#45;&gt;system_cpu_cluster_cpus_icache_port -->
<g id="edge4" class="edge">
<title>system_membus_slave&#45;&gt;system_cpu_cluster_cpus_icache_port</title>
<path fill="none" stroke="#000000" d="M441.7732,-283.3379C453.6021,-234.1544 477.708,-133.9246 487.607,-92.7655"/>
<polygon fill="#000000" stroke="#000000" points="438.3135,-282.7553 439.378,-293.2965 445.1195,-284.3922 438.3135,-282.7553"/>
</g>
<!-- system_cpu_cluster_cpus_dcache_port -->
<g id="node5" class="node">
<title>system_cpu_cluster_cpus_dcache_port</title>
<path fill="#959ead" stroke="#000000" d="M342,-56.5C342,-56.5 416,-56.5 416,-56.5 422,-56.5 428,-62.5 428,-68.5 428,-68.5 428,-80.5 428,-80.5 428,-86.5 422,-92.5 416,-92.5 416,-92.5 342,-92.5 342,-92.5 336,-92.5 330,-86.5 330,-80.5 330,-80.5 330,-68.5 330,-68.5 330,-62.5 336,-56.5 342,-56.5"/>
<text text-anchor="middle" x="379" y="-70.8" font-family="Arial" font-size="14.00" fill="#000000">dcache_port</text>
</g>
<!-- system_membus_slave&#45;&gt;system_cpu_cluster_cpus_dcache_port -->
<g id="edge5" class="edge">
<title>system_membus_slave&#45;&gt;system_cpu_cluster_cpus_dcache_port</title>
<path fill="none" stroke="#000000" d="M428.3457,-283.3379C416.7242,-234.1544 393.0412,-133.9246 383.3159,-92.7655"/>
<polygon fill="#000000" stroke="#000000" points="424.9929,-284.3694 430.6988,-293.2965 431.8053,-282.7597 424.9929,-284.3694"/>
</g>
<!-- system_cpu_cluster_cpus_dtb_walker_port -->
<g id="node6" class="node">
<title>system_cpu_cluster_cpus_dtb_walker_port</title>
<path fill="#7f7c77" stroke="#000000" d="M727,-56.5C727,-56.5 757,-56.5 757,-56.5 763,-56.5 769,-62.5 769,-68.5 769,-68.5 769,-80.5 769,-80.5 769,-86.5 763,-92.5 757,-92.5 757,-92.5 727,-92.5 727,-92.5 721,-92.5 715,-86.5 715,-80.5 715,-80.5 715,-68.5 715,-68.5 715,-62.5 721,-56.5 727,-56.5"/>
<text text-anchor="middle" x="742" y="-70.8" font-family="Arial" font-size="14.00" fill="#000000">port</text>
</g>
<!-- system_membus_slave&#45;&gt;system_cpu_cluster_cpus_dtb_walker_port -->
<g id="edge7" class="edge">
<title>system_membus_slave&#45;&gt;system_cpu_cluster_cpus_dtb_walker_port</title>
<path fill="none" stroke="#000000" d="M472.1464,-308.6711C538.3072,-303.3062 671.1371,-290.936 687,-277 741.6,-229.0325 744.5025,-132.8478 743.1241,-92.7278"/>
<polygon fill="#000000" stroke="#000000" points="471.8182,-305.186 462.1286,-309.4711 472.3755,-312.1638 471.8182,-305.186"/>
</g>
<!-- system_cpu_cluster_cpus_itb_walker_port -->
<g id="node7" class="node">
<title>system_cpu_cluster_cpus_itb_walker_port</title>
<path fill="#7f7c77" stroke="#000000" d="M574,-56.5C574,-56.5 604,-56.5 604,-56.5 610,-56.5 616,-62.5 616,-68.5 616,-68.5 616,-80.5 616,-80.5 616,-86.5 610,-92.5 604,-92.5 604,-92.5 574,-92.5 574,-92.5 568,-92.5 562,-86.5 562,-80.5 562,-80.5 562,-68.5 562,-68.5 562,-62.5 568,-56.5 574,-56.5"/>
<text text-anchor="middle" x="589" y="-70.8" font-family="Arial" font-size="14.00" fill="#000000">port</text>
</g>
<!-- system_membus_slave&#45;&gt;system_cpu_cluster_cpus_itb_walker_port -->
<g id="edge6" class="edge">
<title>system_membus_slave&#45;&gt;system_cpu_cluster_cpus_itb_walker_port</title>
<path fill="none" stroke="#000000" d="M472.1627,-305.6087C504.0557,-299.7706 546.625,-289.849 558,-277 604.7961,-224.1396 597.6598,-131.5049 592.0933,-92.5585"/>
<polygon fill="#000000" stroke="#000000" points="471.4762,-302.1757 462.236,-307.3592 472.6919,-309.0693 471.4762,-302.1757"/>
</g>
</g>
</svg>
